# xmcd
#
# Track frame offsets:
#	150
#	18442
#	33645
#	47210
#	59692
#	80110
#	96182
#	106040
#	122580
#	137325
#	154862
#	173307
#	182402
#	199165
#	214587
#	229545
#	244157
#	260490
#
# Disc length: 3655 seconds
#
# Revision: 0
# Processed by: cddbd v1.5.2PL0 Copyright (c) Steve Scherf et al.
# Submitted via: FairStars CD Ripper 1.80
#
DISCID=ec0e4512
DTITLE=Artistes divers - La route des tubes - Country and Western
DYEAR=1989
DGENRE=Country
TTITLE0=Steve Earle - Johnny Come Lately
TTITLE1=Crystal Gayle - Only Love Can Save Me Now
TTITLE2=Hank Williams Jr - Finders Are Keepers
TTITLE3=Linda Ronstadt - Love Is A Rose
TTITLE4=Dwight Yoakam - Buenas Noches From A Lonely Room
TTITLE5=Randy Travis - Forever And Ever, Amen
TTITLE6=Pasty Cline - Lovin' In Vain
TTITLE7=Emmylou Harris - Save The Last Dance For me
TTITLE8=Waylon Jennings - Trouble Man
TTITLE9=Linda Ronstadt - Blue Bayou
TTITLE10=Judy Collins - Amazing Grace
TTITLE11=Waylon Jennings - Hey Willie
TTITLE12=Rodney Crowell - Voila, An American Dream
TTITLE13=Emmylou Harris - C'est la vie (You Never Can Tell)
TTITLE14=Conway Twitty - Saturday Night Special
TTITLE15=Patty Loveless - Blue Side Of Town
TTITLE16=Reba McEntire - So, So, So Long
TTITLE17=Loretta Lynn - Fly Away
EXTD=
EXTT0=
EXTT1=
EXTT2=
EXTT3=
EXTT4=
EXTT5=
EXTT6=
EXTT7=
EXTT8=
EXTT9=
EXTT10=
EXTT11=
EXTT12=
EXTT13=
EXTT14=
EXTT15=
EXTT16=
EXTT17=
PLAYORDER=
